<svg width="100%" height="100%" viewBox="0 0 40 40" fill="none" xmlns="http://www.w3.org/2000/svg">
<g clip-path="url(#clip0_1_3337)">
<path d="M11.6667 29.9999C9.83335 29.9999 8.35002 31.4999 8.35002 33.3333C8.35002 35.1666 9.83335 36.6666 11.6667 36.6666C13.5 36.6666 15 35.1666 15 33.3333C15 31.4999 13.5 29.9999 11.6667 29.9999ZM1.66669 4.99992C1.66669 5.91659 2.41669 6.66659 3.33335 6.66659H5.00002L11 19.3166L8.75002 23.3833C7.53335 25.6166 9.13335 28.3333 11.6667 28.3333H30C30.9167 28.3333 31.6667 27.5833 31.6667 26.6666C31.6667 25.7499 30.9167 24.9999 30 24.9999H11.6667L13.5 21.6666H25.9167C27.1667 21.6666 28.2667 20.9833 28.8334 19.9499L34.8 9.13325C35.4167 8.03325 34.6167 6.66659 33.35 6.66659H8.68335L7.56669 4.28325C7.30002 3.69992 6.70002 3.33325 6.06669 3.33325H3.33335C2.41669 3.33325 1.66669 4.08325 1.66669 4.99992ZM28.3334 29.9999C26.5 29.9999 25.0167 31.4999 25.0167 33.3333C25.0167 35.1666 26.5 36.6666 28.3334 36.6666C30.1667 36.6666 31.6667 35.1666 31.6667 33.3333C31.6667 31.4999 30.1667 29.9999 28.3334 29.9999Z" fill="#949494"/>
</g>
<defs>
<clipPath id="clip0_1_3337">
<rect width="100%" height="100%" fill="white"/>
</clipPath>
</defs>
</svg>
