<svg width="100%" height="100%" viewBox="0 0 200 200" fill="none" xmlns="http://www.w3.org/2000/svg">
<g clip-path="url(#clip0_118_285)">
<path d="M150 49.9998H133.333C133.333 31.5832 118.417 16.6665 99.9999 16.6665C81.5832 16.6665 66.6666 31.5832 66.6666 49.9998H49.9999C40.8333 49.9998 33.3333 57.4998 33.3333 66.6665V166.667C33.3333 175.833 40.8333 183.333 49.9999 183.333H150C159.167 183.333 166.667 175.833 166.667 166.667V66.6665C166.667 57.4998 159.167 49.9998 150 49.9998ZM83.3333 83.3332C83.3333 87.9165 79.5833 91.6665 74.9999 91.6665C70.4166 91.6665 66.6666 87.9165 66.6666 83.3332V66.6665H83.3333V83.3332ZM99.9999 33.3332C109.167 33.3332 116.667 40.8332 116.667 49.9998H83.3333C83.3333 40.8332 90.8332 33.3332 99.9999 33.3332ZM133.333 83.3332C133.333 87.9165 129.583 91.6665 125 91.6665C120.417 91.6665 116.667 87.9165 116.667 83.3332V66.6665H133.333V83.3332Z" fill="#80BB41"/>
</g>
<defs>
<clipPath id="clip0_118_285">
<rect width="100%" height="100%" fill="white"/>
</clipPath>
</defs>
</svg>
