<svg width="100%" height="100%" viewBox="0 0 80 80" fill="none" xmlns="http://www.w3.org/2000/svg">
<path d="M27.7557 16.1263C27.0282 15.1171 26.0821 14.4928 25.0904 14.4928C24.0987 14.4928 23.1512 15.1171 22.4237 16.1263C21.5427 17.3465 20.9976 19.0783 20.9976 21.0273C20.9976 22.9762 21.5427 24.708 22.4237 25.9291C23.1512 26.9369 24.0973 27.5612 25.0904 27.5612C26.0835 27.5612 27.0282 26.9369 27.7557 25.9291C28.6367 24.7066 29.1819 22.9771 29.1819 21.0273C29.1819 19.0774 28.6367 17.3475 27.7557 16.1263ZM52.6669 43.0934V31.6799C51.0849 31.1409 49.695 30.0399 48.6163 28.5439C47.2046 26.587 46.3311 23.9271 46.3311 21.0273V12.2457C46.3311 11.0068 47.3363 10 48.574 10C49.8118 10 50.817 11.0068 50.817 12.2457V21.0273C50.817 22.9771 51.3621 24.7071 52.2417 25.9291C52.3776 26.1155 52.518 26.287 52.6664 26.4454V12.2457C52.6664 11.0068 53.6702 10 54.9084 10C56.1467 10 57.1519 11.0068 57.1519 12.2457V26.4421C57.2998 26.2837 57.4412 26.1141 57.5751 25.9291C58.4561 24.708 59.0013 22.9771 59.0013 21.0273V12.2457C59.0013 11.0068 60.0051 10 61.2443 10C62.4834 10 63.4863 11.0068 63.4863 12.2457V21.0273C63.4863 23.9271 62.6127 26.5875 61.201 28.5439C60.1242 30.039 58.7324 31.1395 57.1514 31.6799V41.903C55.6722 42.3592 54.1763 42.7566 52.6659 43.0934H52.6669ZM25.0904 10C27.5967 10 29.8187 11.3409 31.383 13.5107C32.7947 15.4675 33.6669 18.1283 33.6669 21.0273C33.6669 23.9262 32.7947 26.5875 31.383 28.5439C30.3052 30.039 28.913 31.1395 27.3325 31.6799V43.0934C25.8221 42.7566 24.3253 42.3592 22.8475 41.9021V31.6799C21.2664 31.1395 19.8747 30.039 18.7969 28.5439C17.3861 26.587 16.5117 23.9271 16.5117 21.0273C16.5117 18.1274 17.3861 15.467 18.7969 13.5107C20.3608 11.3409 22.5828 10 25.0904 10ZM27.3325 67.752C27.3325 68.9932 26.3287 70 25.0904 70C23.8522 70 22.8475 68.9932 22.8475 67.752V50.0831C17.4182 48.6206 12.1313 46.4499 7.12771 43.5719C6.05414 42.9574 5.68155 41.5853 6.29648 40.509C6.91095 39.4337 8.27988 39.0614 9.35345 39.6764C18.8411 45.1323 29.42 47.8607 40.0004 47.8607C50.5807 47.8607 61.1591 45.1323 70.6473 39.6764C71.7208 39.0619 73.0893 39.4337 73.7042 40.509C74.3178 41.5853 73.9461 42.9574 72.873 43.5719C67.8694 46.4499 62.5825 48.6206 57.1533 50.0831V67.752C57.1533 68.9932 56.1481 70 54.9098 70C53.6716 70 52.6678 68.9932 52.6678 67.752V51.1249C48.4856 51.943 44.2435 52.353 40.0004 52.353C35.7573 52.353 31.5155 51.9444 27.3329 51.1263V67.752H27.3325Z" fill="currentColor"/>
</svg>
