<svg width="100%" height="100%" viewBox="0 0 40 40" fill="none" xmlns="http://www.w3.org/2000/svg">
<g clip-path="url(#clip0_1_32252)">
<path d="M25.8333 23.3333H24.5166L24.0499 22.8833C26.0499 20.55 27.0833 17.3667 26.5166 13.9833C25.7333 9.35001 21.8666 5.65001 17.1999 5.08334C10.1499 4.21667 4.21661 10.15 5.08328 17.2C5.64994 21.8667 9.34994 25.7333 13.9833 26.5167C17.3666 27.0833 20.5499 26.05 22.8833 24.05L23.3333 24.5167V25.8333L30.4166 32.9167C31.0999 33.6 32.2166 33.6 32.8999 32.9167C33.5833 32.2333 33.5833 31.1167 32.8999 30.4333L25.8333 23.3333ZM15.8333 23.3333C11.6833 23.3333 8.33328 19.9833 8.33328 15.8333C8.33328 11.6833 11.6833 8.33334 15.8333 8.33334C19.9833 8.33334 23.3333 11.6833 23.3333 15.8333C23.3333 19.9833 19.9833 23.3333 15.8333 23.3333Z" fill="currentColor"/>
</g>
<defs>
<clipPath id="clip0_1_32252">
<rect width="100%" height="100%" fill="currentColor"/>
</clipPath>
</defs>
</svg>
