<svg width="100%" height="100%" viewBox="0 0 200 200" fill="none" xmlns="http://www.w3.org/2000/svg">
<g clip-path="url(#clip0_118_279)">
<path d="M182.5 41.6668H150V16.6668C150 12.0835 146.25 8.3335 141.667 8.3335C137.083 8.3335 133.333 12.0835 133.333 16.6668V41.6668H100.833C95.9166 41.6668 92.0833 45.9168 92.4999 50.8335L93.4999 60.9168C124.167 68.0002 150 89.7502 150 125L150.167 191.667H164.333C171.333 191.667 177.083 186.25 177.917 179.417L190.75 50.8335C191.25 45.9168 187.417 41.6668 182.5 41.6668ZM125 175H16.6666C12.0833 175 8.33325 178.75 8.33325 183.333C8.33325 187.917 12.0833 191.667 16.6666 191.667H125C129.583 191.667 133.333 187.917 133.333 183.333C133.333 178.75 129.583 175 125 175ZM17.4999 125H124.167C129.333 125 133.417 120.333 132.417 115.333C127 88.4168 98.9166 74.9168 70.8332 74.9168C42.7499 74.9168 14.7499 88.4168 9.24992 115.333C8.24992 120.333 12.4166 125 17.4999 125ZM125 141.667H16.6666C12.0833 141.667 8.33325 145.417 8.33325 150C8.33325 154.583 12.0833 158.333 16.6666 158.333H125C129.583 158.333 133.333 154.583 133.333 150C133.333 145.417 129.583 141.667 125 141.667Z" fill="#FF8400"/>
</g>
<defs>
<clipPath id="clip0_118_279">
<rect width="100%" height="100%" fill="white"/>
</clipPath>
</defs>
</svg>
