<svg width="40" height="40" viewBox="0 0 40 40" fill="none" xmlns="http://www.w3.org/2000/svg">
<g clip-path="url(#clip0_1_32258)">
<path d="M25.8333 23.3334H24.5167L24.05 22.8834C26.05 20.5501 27.0833 17.3667 26.5167 13.9834C25.7333 9.35007 21.8667 5.65007 17.2 5.0834C10.15 4.21673 4.21667 10.1501 5.08334 17.2001C5.65001 21.8667 9.35001 25.7334 13.9833 26.5167C17.3667 27.0834 20.55 26.0501 22.8833 24.0501L23.3333 24.5167V25.8334L30.4167 32.9167C31.1 33.6001 32.2167 33.6001 32.9 32.9167C33.5833 32.2334 33.5833 31.1167 32.9 30.4334L25.8333 23.3334ZM15.8333 23.3334C11.6833 23.3334 8.33334 19.9834 8.33334 15.8334C8.33334 11.6834 11.6833 8.3334 15.8333 8.3334C19.9833 8.3334 23.3333 11.6834 23.3333 15.8334C23.3333 19.9834 19.9833 23.3334 15.8333 23.3334Z" fill="#FF8400"/>
</g>
<defs>
<clipPath id="clip0_1_32258">
<rect width="40" height="40" fill="white"/>
</clipPath>
</defs>
</svg>
